<svg width="32" height="34" viewBox="0 0 32 34" fill="none" xmlns="http://www.w3.org/2000/svg">
<path d="M0.9835 27.328H5.3995V7.072H0.9835V0.399998H18.9835C22.8875 0.399998 25.9595 1.344 28.1995 3.232C30.4395 5.088 31.5595 7.648 31.5595 10.912C31.5595 14.208 30.4395 16.8 28.1995 18.688C25.9595 20.544 22.8875 21.472 18.9835 21.472H12.4075V27.328H19.0315V34H0.9835V27.328ZM18.6475 15.856C20.3115 15.856 21.6395 15.44 22.6315 14.608C23.6235 13.776 24.1195 12.672 24.1195 11.296C24.1195 9.888 23.6235 8.784 22.6315 7.984C21.6395 7.152 20.3115 6.736 18.6475 6.736H12.4075V15.856H18.6475Z" fill="#FFB700"/>
</svg>
