<svg width="213" height="44" viewBox="0 0 213 44" fill="none" xmlns="http://www.w3.org/2000/svg">
<path d="M1.38975 29.328H5.80575V9.072H1.38975V2.4H19.3898C23.2938 2.4 26.3658 3.344 28.6058 5.232C30.8458 7.088 31.9658 9.648 31.9658 12.912C31.9658 16.208 30.8458 18.8 28.6058 20.688C26.3658 22.544 23.2938 23.472 19.3898 23.472H12.8138V29.328H19.4378V36H1.38975V29.328ZM19.0538 17.856C20.7178 17.856 22.0458 17.44 23.0378 16.608C24.0298 15.776 24.5258 14.672 24.5258 13.296C24.5258 11.888 24.0298 10.784 23.0378 9.984C22.0458 9.152 20.7178 8.736 19.0538 8.736H12.8138V17.856H19.0538ZM47.1668 36.48C44.6388 36.48 42.3668 35.952 40.3508 34.896C38.3668 33.808 36.8148 32.32 35.6948 30.432C34.5748 28.544 34.0148 26.4 34.0148 24C34.0148 21.632 34.5748 19.504 35.6948 17.616C36.8468 15.696 38.4148 14.208 40.3988 13.152C42.4148 12.064 44.6708 11.52 47.1668 11.52C49.6948 11.52 51.9508 12.064 53.9348 13.152C55.9508 14.208 57.5188 15.68 58.6388 17.568C59.7588 19.456 60.3188 21.6 60.3188 24C60.3188 26.368 59.7428 28.512 58.5908 30.432C57.4708 32.32 55.9028 33.808 53.8868 34.896C51.9028 35.952 49.6628 36.48 47.1668 36.48ZM47.1668 30.48C48.4148 30.48 49.5348 30.208 50.5268 29.664C51.5508 29.088 52.3348 28.32 52.8788 27.36C53.4548 26.368 53.7428 25.248 53.7428 24C53.7428 22.752 53.4548 21.648 52.8788 20.688C52.3348 19.696 51.5508 18.928 50.5268 18.384C49.5348 17.808 48.4148 17.52 47.1668 17.52C45.9188 17.52 44.7828 17.808 43.7588 18.384C42.7668 18.928 41.9828 19.696 41.4068 20.688C40.8628 21.648 40.5908 22.752 40.5908 24C40.5908 25.248 40.8628 26.368 41.4068 27.36C41.9828 28.32 42.7668 29.088 43.7588 29.664C44.7828 30.208 45.9188 30.48 47.1668 30.48ZM62.5538 30H66.2018V18H62.5538V12H71.6258V14.544C72.0738 13.68 72.7138 12.992 73.5458 12.48C74.3778 11.936 75.2738 11.664 76.2338 11.664C77.1618 11.664 78.0258 11.888 78.8258 12.336C79.0498 12.464 79.2738 12.608 79.4978 12.768C79.7218 12.928 79.9138 13.104 80.0738 13.296V11.088H85.6418V22.896H80.0738V21.024C80.0738 20.384 79.8978 19.808 79.5458 19.296C79.2258 18.752 78.7778 18.32 78.2018 18C77.6258 17.68 76.9858 17.52 76.2818 17.52C75.5458 17.52 74.8578 17.744 74.2178 18.192C73.6098 18.608 73.1138 19.184 72.7298 19.92C72.3778 20.656 72.2018 21.472 72.2018 22.368V30H77.7698V36H62.5538V30ZM99.2021 36.144C96.5781 36.144 94.6101 35.488 93.2981 34.176C91.9861 32.832 91.3301 30.896 91.3301 28.368V18H86.5781V12H88.8821C89.8101 12 90.5141 11.76 90.9941 11.28C91.5061 10.768 91.7621 10.048 91.7621 9.12V6.24H97.3301V12H105.922V18H97.3301V27.168C97.3301 28.16 97.6181 28.912 98.1941 29.424C98.7701 29.904 99.6021 30.144 100.69 30.144C101.618 30.144 102.514 30.096 103.378 30C104.242 29.872 105.09 29.712 105.922 29.52V35.52C104.834 35.712 103.714 35.872 102.562 36C101.442 36.096 100.322 36.144 99.2021 36.144ZM107.835 30H111.483V18H107.835V12H111.483V9.744C111.483 8.016 111.819 6.528 112.491 5.28C113.195 4.032 114.139 3.088 115.323 2.448C116.539 1.776 117.899 1.44 119.403 1.44C120.075 1.44 120.747 1.52 121.419 1.68C122.091 1.808 122.715 2.016 123.291 2.304C123.483 2.368 123.659 2.464 123.819 2.592C123.979 2.688 124.139 2.8 124.299 2.928V1.008H129.867V10.176H124.299V9.456C124.299 8.976 124.139 8.544 123.819 8.16C123.499 7.776 123.051 7.472 122.475 7.248C121.931 7.024 121.307 6.912 120.603 6.912C119.547 6.912 118.699 7.184 118.059 7.728C117.451 8.272 117.147 9.008 117.147 9.936C117.147 10.128 117.147 10.32 117.147 10.512C117.147 10.704 117.147 10.88 117.147 11.04C117.147 11.232 117.147 11.408 117.147 11.568C117.147 11.696 117.147 11.84 117.147 12H126.411V18H117.483C117.483 18.064 117.483 18.144 117.483 18.24C117.483 18.304 117.483 18.368 117.483 18.432V30H122.907V36H107.835V30ZM139.792 36.48C137.264 36.48 134.992 35.952 132.976 34.896C130.992 33.808 129.44 32.32 128.32 30.432C127.2 28.544 126.64 26.4 126.64 24C126.64 21.632 127.2 19.504 128.32 17.616C129.472 15.696 131.04 14.208 133.024 13.152C135.04 12.064 137.296 11.52 139.792 11.52C142.32 11.52 144.576 12.064 146.56 13.152C148.576 14.208 150.144 15.68 151.264 17.568C152.384 19.456 152.944 21.6 152.944 24C152.944 26.368 152.368 28.512 151.216 30.432C150.096 32.32 148.528 33.808 146.512 34.896C144.528 35.952 142.288 36.48 139.792 36.48ZM139.792 30.48C141.04 30.48 142.16 30.208 143.152 29.664C144.176 29.088 144.96 28.32 145.504 27.36C146.08 26.368 146.368 25.248 146.368 24C146.368 22.752 146.08 21.648 145.504 20.688C144.96 19.696 144.176 18.928 143.152 18.384C142.16 17.808 141.04 17.52 139.792 17.52C138.544 17.52 137.408 17.808 136.384 18.384C135.392 18.928 134.608 19.696 134.032 20.688C133.488 21.648 133.216 22.752 133.216 24C133.216 25.248 133.488 26.368 134.032 27.36C134.608 28.32 135.392 29.088 136.384 29.664C137.408 30.208 138.544 30.48 139.792 30.48ZM153.543 30H157.431V8.4H153.351V2.4H163.431V30H167.511V36H153.543V30ZM169.382 30H173.318V18H169.382V12H179.318V30H183.206V36H169.382V30ZM170.678 0.239997H180.086L175.622 9.264H175.094L170.678 0.239997ZM198.479 36.48C195.951 36.48 193.679 35.952 191.663 34.896C189.679 33.808 188.127 32.32 187.007 30.432C185.887 28.544 185.327 26.4 185.327 24C185.327 21.632 185.887 19.504 187.007 17.616C188.159 15.696 189.727 14.208 191.711 13.152C193.727 12.064 195.983 11.52 198.479 11.52C201.007 11.52 203.263 12.064 205.247 13.152C207.263 14.208 208.831 15.68 209.951 17.568C211.071 19.456 211.631 21.6 211.631 24C211.631 26.368 211.055 28.512 209.903 30.432C208.783 32.32 207.215 33.808 205.199 34.896C203.215 35.952 200.975 36.48 198.479 36.48ZM198.479 30.48C199.727 30.48 200.847 30.208 201.839 29.664C202.863 29.088 203.647 28.32 204.191 27.36C204.767 26.368 205.055 25.248 205.055 24C205.055 22.752 204.767 21.648 204.191 20.688C203.647 19.696 202.863 18.928 201.839 18.384C200.847 17.808 199.727 17.52 198.479 17.52C197.231 17.52 196.095 17.808 195.071 18.384C194.079 18.928 193.295 19.696 192.719 20.688C192.175 21.648 191.903 22.752 191.903 24C191.903 25.248 192.175 26.368 192.719 27.36C193.295 28.32 194.079 29.088 195.071 29.664C196.095 30.208 197.231 30.48 198.479 30.48Z" fill="black"/>
<path d="M0.09375 40.8H32.7337V43.2H0.09375V40.8ZM32.7188 40.8H61.6148V43.2H32.7188V40.8ZM61.5938 40.8H106.882V43.2H61.5938V40.8ZM106.875 40.8H125.787V43.2H106.875V40.8ZM125.344 40.8H154.24V43.2H125.344V40.8ZM152.391 40.8H168.423V43.2H152.391V40.8ZM168.422 40.8H212.927V43.2H168.422V40.8Z" fill="black"/>
</svg>
